<?xml version="1.0" encoding="utf-8"?>
<!-- Generator: Adobe Illustrator 26.4.1, SVG Export Plug-In . SVG Version: 6.00 Build 0)  -->
<svg version="1.1" id="Layer_1" xmlns="http://www.w3.org/2000/svg" xmlns:xlink="http://www.w3.org/1999/xlink" x="0px" y="0px"
	 viewBox="0 0 120 21.6" style="enable-background:new 0 0 120 21.6;" xml:space="preserve">
<style type="text/css">
	.st0{fill:#50B848;}
</style>
<path class="st0" d="M109.1,16.3c1.1,0,3,0.2,4-1.4c0.2-0.3,0.3-1.5,0.3-2.6V9.4c0-1.2-0.1-2.3-0.3-2.6c-0.9-1.6-2.9-1.4-4-1.4h-7.4
	c-1.1,0-3.1-0.2-4,1.4C97.6,7,97.5,8,97.5,9.4v2.9c0,1.2,0.1,2.3,0.3,2.6c1,1.6,3,1.4,4,1.4H109.1z M100.5,21.6
	c-2,0-5.9-0.1-7.8-1.9c-1.7-1.8-1.8-5.4-1.8-6.9V8.3c0-1.5-0.1-4.6,1.8-6.4c2-1.9,5-1.9,7.6-1.9h10.6c2.6,0,5.7,0,7.6,1.9
	c1.7,1.6,1.5,4.9,1.5,6.4v4.5c0,1.9,0.3,5.1-1.5,6.9c-1.8,1.9-6.3,1.9-7.8,1.9H100.5z"/>
<path class="st0" d="M26.7,2c-2.1-2.1-5.4-2-7.9-2H0v9.8h6.6V5.3h9.5c2.3,0,4.6-0.2,5.5,1.5c0.5,1,0.6,6.9-0.1,7.9
	c-1.1,1.7-2.7,1.6-5.1,1.6H6.6v-4.4H0v9.7h18.8c2.2,0,6.1-0.1,8.1-2c1.9-1.8,1.8-4.5,1.8-6.6V8.7C28.7,6.2,28.7,3.8,26.7,2
	 M88.2,7.8c0-1.5-0.2-4.2-0.7-5.1C86,0.3,83.8,0,81.1,0H70.6c-2.3,0-6.1,0.1-8.1,2c-2,2-1.9,4.8-1.9,7.5V12c0,3.3-0.1,5.7,2,7.7
	c2,2,5.2,1.9,7.8,1.9h10.8c1.8,0,4.3,0,5.9-1.7c1.6-1.6,1.4-5.7,1.4-6.6h-6.6c0,1-0.1,1.5-0.3,1.9c-0.8,1.2-2.3,1.1-4.1,1.1h-5.6
	c-1.5,0-3.1,0.2-4.2-1.4c-0.6-1-0.6-7.4-0.1-8.3c0.7-1.5,2.4-1.4,3.6-1.4h7.2c2.1,0.1,3.2,0.1,3.3,2.5h6.5V7.8z M31.2,0h6.6v10.6
	c0,1.4-0.1,3.8,0.9,4.8s2.7,0.9,3.7,0.9h5.3c0.6,0,2.4,0.2,3.3-0.9c0.9-0.9,0.7-2.7,0.7-4.7V0h6.6v12.8c0,2.5,0.2,4.8-1.7,6.8
	c-2,2.1-4.7,2-7.6,2h-9.6c-2.3,0-4.2,0.2-6.3-2c-2-2.1-1.8-5.8-1.8-7.5V0H31.2z"/>
</svg>
